<?xml version='1.0' encoding='iso-8859-1'?>
<!DOCTYPE svg PUBLIC '-//W3C//DTD SVG 1.1//EN' 'http://www.w3.org/Graphics/SVG/1.1/DTD/svg11.dtd'>
<svg version="1.1" xmlns="http://www.w3.org/2000/svg" viewBox="0 0 456.747 456.747" xmlns:xlink="http://www.w3.org/1999/xlink" enable-background="new 0 0 456.747 456.747">
  <g>
    <path d="m400.397,279.74c-14.234,0-27.051,6.176-35.918,15.987-8.867-9.811-21.684-15.987-35.918-15.987-18.582,0-34.743,10.528-42.857,25.927h-119.179v-169.199c0-6.904-5.596-12.5-12.5-12.5h-113.569c-5.487,0-10.333,3.579-11.947,8.823l-27.956,90.844c-0.366,1.192-0.553,2.431-0.553,3.677v90.855c0,6.904 5.596,12.5 12.5,12.5h44.343c1.31,25.536 22.497,45.908 48.353,45.908s47.043-20.372 48.353-45.908h0.476c0.002,0 0.003,0 0.005,0h126.178c1.31,25.536 22.497,45.909 48.353,45.909 14.234,0 27.051-6.176 35.918-15.987 8.867,9.811 21.684,15.987 35.918,15.987 26.698,0 48.418-21.72 48.418-48.418s-21.72-48.418-48.418-48.418zm-350.709-130.772h38.053v65.842h-58.315l20.262-65.842zm55.508,202.608c-12.913,0-23.418-10.505-23.418-23.418s10.505-23.418 23.418-23.418 23.418,10.505 23.418,23.418-10.506,23.418-23.418,23.418zm0-71.836c-18.582,0-34.743,10.528-42.858,25.927h-37.338v-65.857h75.241c6.904,0 12.5-5.596 12.5-12.5v-78.342h28.784v147.233c-8.88-10.082-21.87-16.461-36.329-16.461zm223.365,71.836c-12.913,0-23.418-10.505-23.418-23.418s10.505-23.418 23.418-23.418 23.418,10.505 23.418,23.418-10.505,23.418-23.418,23.418zm71.836,0c-12.913,0-23.418-10.505-23.418-23.418s10.505-23.418 23.418-23.418c12.913,0 23.418,10.505 23.418,23.418s-10.505,23.418-23.418,23.418z"/>
    <path d="m446.468,171.484l-235.478-42.545c-5.02-27.696-29.313-48.768-58.434-48.768h-35.224c-6.903,0-12.5,5.596-12.5,12.5s5.597,12.5 12.5,12.5h35.224c18.959,0 34.384,15.425 34.384,34.384 0,0.667 0.005,113.465 0.005,113.465 0,6.904 5.597,12.5 12.5,12.5h234.705c6.207,0 11.474-4.554 12.369-10.697l10.095-69.235c0.973-6.668-3.515-12.906-10.146-14.104zm-23.127,69.036h-211.395v-86.003l218.187,39.421-6.792,46.582z"/>
  </g>
</svg>
